<?xml version="1.0" standalone="no"?><!DOCTYPE svg PUBLIC "-//W3C//DTD SVG 1.1//EN" "http://www.w3.org/Graphics/SVG/1.1/DTD/svg11.dtd"><svg t="1619166942966" class="icon" viewBox="0 0 1027 1024" version="1.1" xmlns="http://www.w3.org/2000/svg" p-id="4203" xmlns:xlink="http://www.w3.org/1999/xlink" width="200.5859375" height="200"><defs><style type="text/css"></style></defs><path d="M684.796886 383.04141c-18.748156-17.726622-35.627505-33.746681-50.62603-48.066186l-38.866369-35.795758c-10.227359-9.554349-16.362573-15.347048-18.405642-17.390116-19.09067-17.726622-40.572932-26.073157-64.434768-25.051622-23.867845 1.021534-44.322563 9.374078-61.364156 25.051622-2.734106 2.728097-9.380087 9.037573-19.949961 18.928427-10.563865 9.890854-23.693583 21.98702-39.371127 36.306525-15.677544 14.307487-33.067661 30.171311-52.16434 47.54941-19.096679 17.396125-38.18735 34.948486-57.266002 52.675107C236.64986 478.831267 185.855577 525.196899 129.941606 576.333696l0 396.535516c0 16.362573 5.798708 28.975515 17.390116 37.838826 11.597417 8.86932 27.274961 13.291962 47.050661 13.291962l201.488595 0c-0.138208-2.139213-0.228343-4.296452-0.228343-6.471719l0-174.435967c0-55.132798 44.695123-99.821912 99.827921-99.821912l36.973527 0c55.132798 0 99.827921 44.689114 99.827921 99.821912l0 174.435967c0 2.175267-0.096144 4.326498-0.234352 6.471719l201.572721 0c19.09067-0.67902 34.263457-6.814234 45.506341-18.405642 11.254903-11.591408 16.885358-24.889379 16.885358-39.887904L896.002073 578.382773c-56.599-52.500846-107.735797-99.882002-153.4164-142.155489C722.803965 418.500663 703.545042 400.774041 684.796886 383.04141L684.796886 383.04141zM1026.908668 475.087645c-0.685029-16.368582-8.178282-31.361098-22.497787-44.995574l-25.568399-25.568399c-12.949447-12.955456-28.969506-28.470757-48.072195-46.533884-19.09067-18.075145-40.056156-38.355602-62.896458-60.853389-22.834292-22.503796-46.197379-45.169836-70.059215-68.016146-23.867845-22.846311-47.387166-45.51235-70.563973-68.016146-23.194834-22.497787-44.154311-42.778244-62.908476-60.84738-18.742147-18.069136-34.605971-33.410175-47.555419-46.023117-12.961465-12.612942-21.482262-20.622972-25.574408-24.036097-21.133739-20.454719-46.696128-30.513826-76.711205-30.165302-29.99104 0.342514-57.95704 13.1177-83.855935 38.349593-3.413126 3.407117-15.515301 14.824263-36.312534 34.257448-20.797233 19.433185-45.680603 42.784253-74.662127 70.059215-28.981524 27.274961-60.342622 56.592991-94.095312 87.954089C191.822538 262.013651 160.28117 291.33769 130.96314 318.606642 101.64511 345.881604 76.419226 369.406934 55.279479 389.176624c-21.139748 19.76969-33.746681 31.703612-37.844835 35.795758-10.906379 10.227359-16.705088 24.036097-17.384107 41.414196-0.685029 17.390116 5.792699 32.226398 19.433185 44.496825 12.276437 10.906379 26.932447 16.020059 43.97404 15.341039 17.047602-0.685029 30.682078-5.107671 40.915447-13.291962 3.407117-2.728097 13.466224-11.76567 30.171311-27.1007 16.699079-15.341039 36.649039-33.926951 59.831855-55.745719 23.188825-21.818767 48.414709-45.338089 75.689671-70.563973 27.268952-25.231893 53.185874-49.430234 77.72673-72.619059 24.546864-23.176807 46.197379-43.463273 64.945535-60.853389 18.748156-17.378098 31.53536-29.143768 38.355602-35.272973 20.454719-18.411651 41.245943-27.95999 62.379682-28.645019 21.145757-0.67902 42.62201 8.86932 64.440777 28.645019 4.771165 4.092146 16.020059 14.65601 33.746681 31.697603 17.726622 17.047602 38.872378 37.159806 63.413234 60.342622 24.546864 23.188825 50.632039 47.897933 78.243506 74.15136 27.623485 26.247418 53.52238 50.794283 77.738748 73.634584 24.20435 22.840301 45.001583 42.447748 62.385691 58.804312 17.390116 16.368582 27.779719 25.916922 31.192845 28.645019 10.227359 8.857302 23.867845 13.640485 40.903429 14.313496 17.047602 0.685029 32.052136-4.771165 45.001583-16.362573C1022.137503 505.090704 1027.593697 491.450218 1026.908668 475.087645L1026.908668 475.087645z" p-id="4204" fill="#2c2c2c"></path></svg>